<svg width="50" height="50" viewBox="0 0 50 50" fill="none" xmlns="http://www.w3.org/2000/svg">
<path d="M25 0C38.8071 0 50 11.1929 50 25C50 38.8071 38.8071 50 25 50C11.1929 50 0 38.8071 0 25C0 11.1929 11.1929 0 25 0ZM31.2627 19.7061C28.9908 19.7061 26.9577 20.5359 25.5156 22.3672V20.1953H20.8174V35.8506H25.5156V27.3848C25.5156 25.5957 27.1549 23.8496 29.208 23.8496C31.2611 23.8496 31.7676 25.5955 31.7676 27.3408V35.8486H36.4482V26.9922C36.448 20.8407 33.5361 19.7061 31.2627 19.7061ZM13.0254 35.8496H17.7061V20.2471H13.0254V35.8496ZM15.3438 14C14.05 14 13 15.05 13 16.3438C13 17.6375 14.05 18.6875 15.3438 18.6875C16.6375 18.6875 17.6874 17.6375 17.6875 16.3438C17.6875 15.05 16.6375 14 15.3438 14Z" fill="#EEF5FF"/>
</svg>
